<?xml version="1.0" encoding="utf-8"?> <svg xmlns="http://www.w3.org/2000/svg" xmlns:xlink="http://www.w3.org/1999/xlink" version="1.1" id="Layer_1" x="0px" y="0px" viewBox="0 0 48 48" style="enable-background:new 0 0 48 48;" xml:space="preserve"> <style type="text/css"> .st0{fill:#FFFFFF;} </style> <circle cx="24" cy="24" r="23.5"></circle> <path id="icon" class="st0" d="M35.4,30c0,4.6-3.7,8.3-8.3,8.3c-4.6,0-8.2-3.6-8.2-8.3c0-2.2,0.8-4.1,2.2-5.6L15.5,30L12.6,27 l6.3-6.2c0.9-0.9,1.3-2,1.3-3.2V9.8h4.1v7.8c0,2.4-0.9,4.4-2.5,6.1l-0.2,0.2c1.5-1.3,3.4-2.2,5.6-2.2C31.9,21.7,35.4,25.5,35.4,30z M31.7,30c0-2.5-2-4.4-4.5-4.4c-2.5,0-4.5,2.1-4.5,4.4c0,2.4,2,4.5,4.5,4.5C29.8,34.4,31.7,32.3,31.7,30z"></path> </svg> 